<svg xmlns="http://www.w3.org/2000/svg" xmlns:xlink="http://www.w3.org/1999/xlink" width="840" height="148.55"><rect width="840" height="148.55" rx="0" ry="0" class="a"></rect><svg height="108.55000000000001" viewBox="0 0 80 10.855" width="800" x="20" xmlns="http://www.w3.org/2000/svg" xmlns:xlink="http://www.w3.org/1999/xlink" y="20"><style>.a{fill:rgb(40,45,53)}.b{font-family:'Fira Code',Monaco,Consolas,Menlo,'Bitstream Vera Sans Mono','Powerline Symbols',monospace}.c{fill:transparent}.d{fill:rgb(185,192,203);white-space:pre}</style><g font-family="&#x27;Fira Code&#x27;,Monaco,Consolas,Menlo,&#x27;Bitstream Vera Sans Mono&#x27;,&#x27;Powerline Symbols&#x27;,monospace" font-size="1.67" class="b"><defs><symbol id="a"><rect height="5" width="80" x="0" y="0" class="c"></rect></symbol></defs><rect height="10.855" width="80" class="a"></rect><svg x="0" y="0" width="80"><svg x="0"><use xlink:href="#a"></use><text font-size="1.67" x="0" y="1.67" class="d">&gt;</text><text font-size="1.67" x="2.004" y="1.67" class="d">draw(x_vlmc)</text><text font-size="1.67" x="0" y="3.8409999999999997" class="d">▪</text><text font-size="1.67" x="2.004" y="3.8409999999999997" class="d">(0.34,</text><text font-size="1.67" x="9.017999999999999" y="3.8409999999999997" class="d">0.42,</text><text font-size="1.67" x="15.029999999999998" y="3.8409999999999997" class="d">0.24)</text><text font-size="1.67" x="0" y="6.012" class="d">├─</text><text font-size="1.67" x="3.006" y="6.012" class="d">1</text><text font-size="1.67" x="5.01" y="6.012" class="d">(0.1429,</text><text font-size="1.67" x="14.027999999999999" y="6.012" class="d">0.619,</text><text font-size="1.67" x="21.041999999999998" y="6.012" class="d">0.2381)</text><text font-size="1.67" x="0" y="8.183" class="d">└─</text><text font-size="1.67" x="3.006" y="8.183" class="d">2</text><text font-size="1.67" x="5.01" y="8.183" class="d">(0.4545,</text><text font-size="1.67" x="14.027999999999999" y="8.183" class="d">0.1818,</text><text font-size="1.67" x="22.043999999999997" y="8.183" class="d">0.3636)</text><text font-size="1.67" x="3.006" y="10.354" class="d">└─</text><text font-size="1.67" x="6.012" y="10.354" class="d">1</text><text font-size="1.67" x="8.016" y="10.354" class="d">(0,</text><text font-size="1.67" x="12.024" y="10.354" class="d">0.25,</text><text font-size="1.67" x="18.035999999999998" y="10.354" class="d">0.75)</text></svg></svg></g></svg></svg>